<?xml version="1.0" standalone="no"?><!DOCTYPE svg PUBLIC "-//W3C//DTD SVG 1.1//EN" "http://www.w3.org/Graphics/SVG/1.1/DTD/svg11.dtd"><svg t="1537772041223" class="icon" style="" viewBox="0 0 1024 1024" version="1.1" xmlns="http://www.w3.org/2000/svg" p-id="3476" xmlns:xlink="http://www.w3.org/1999/xlink" width="48" height="48"><defs><style type="text/css"></style></defs><path d="M498.8 891.4H256.2c-66.6 0-120.8-54.2-120.8-120.8V239.8c0-66.6 54.2-120.8 120.8-120.8h432.4c66.6 0 120.8 54.2 120.8 120.8v275.9c0 8.7-7 15.7-15.7 15.7s-15.7-7-15.7-15.7V239.8c0-49.3-40.1-89.3-89.3-89.3H256.2c-49.3 0-89.3 40.1-89.3 89.3v530.8c0 49.3 40.1 89.3 89.3 89.3h242.7c8.7 0 15.7 7 15.7 15.7s-7.1 15.8-15.8 15.8z" fill="" p-id="3477"></path><path d="M641.3 532.7c-8.7 0-15.7-7-15.7-15.7V384.8c0-8.7 7-15.7 15.7-15.7s15.7 7 15.7 15.7V517c0.1 8.6-7 15.7-15.7 15.7zM336.2 643.9c-8.7 0-15.7-7-15.7-15.7V473.6c0-8.7 7-15.7 15.7-15.7s15.7 7 15.7 15.7v154.6c0.1 8.7-7 15.7-15.7 15.7zM488.8 602.8c-8.7 0-15.7-7-15.7-15.7V384.8c0-8.7 7-15.7 15.7-15.7s15.7 7 15.7 15.7v202.3c0 8.7-7 15.7-15.7 15.7zM709.6 905c-98.7 0-179-80.3-179-179s80.3-179 179-179 179 80.3 179 179-80.3 179-179 179z m0-326.6C628.2 578.4 562 644.6 562 726c0 81.4 66.2 147.6 147.6 147.6S857.2 807.4 857.2 726c0-81.4-66.2-147.6-147.6-147.6z" fill="" p-id="3478"></path><path d="M774.5 717H644.6c-8.7 0-15.7-7-15.7-15.7s7-15.7 15.7-15.7h93.7c-2.1-5.6-0.9-12.1 3.5-16.6 6.1-6.2 16-6.3 22.2-0.1l21.5 21.3c4.5 4.5 5.9 11.2 3.5 17.1-2.4 5.8-8.1 9.7-14.5 9.7zM666.1 800.6c-4 0-8-1.5-11.1-4.5l-21.5-21.2c-4.5-4.5-5.9-11.3-3.5-17.1 2.4-5.9 8.2-9.7 14.5-9.7h129.9c8.7 0 15.7 7 15.7 15.7s-7 15.7-15.7 15.7h-93.7c2.1 5.6 0.9 12.1-3.6 16.6-2.9 2.9-6.9 4.5-11 4.5z" fill="" p-id="3479"></path></svg>