<?xml version="1.0" standalone="no"?><!DOCTYPE svg PUBLIC "-//W3C//DTD SVG 1.1//EN" "http://www.w3.org/Graphics/SVG/1.1/DTD/svg11.dtd"><svg class="icon" width="200px" height="200.00px" viewBox="0 0 1024 1024" version="1.1" xmlns="http://www.w3.org/2000/svg"><path d="M925.61883 743.683686 520.433578 743.683686c11.860119-20.552082 20.971637-42.718941 27.048029-66.242703l378.137223 0c18.289552 0 33.089629 14.863523 33.089629 33.089629C958.70846 728.820164 943.908382 743.683686 925.61883 743.683686zM925.61883 644.367727 553.846572 644.367727c1.356904-10.824533 2.294252-21.845541 2.294252-33.089629 0-11.212366-0.937348-22.200628-2.294252-33.057907l371.772258 0c18.289552 0 33.089629 14.800078 33.089629 33.057907C958.70846 629.567649 943.908382 644.367727 925.61883 644.367727zM925.61883 545.098839 547.481607 545.098839c-6.076392-23.460318-15.187911-45.693692-27.048029-66.179258l405.185252 0c18.289552 0 33.089629 14.800078 33.089629 33.121352C958.70846 530.298761 943.908382 545.098839 925.61883 545.098839zM925.61883 445.829951 497.878886 445.829951c-21.553898-26.78811-48.115857-49.344848-78.394465-66.179258l506.134409 0c18.289552 0 33.089629 14.8318 33.089629 33.089629C958.70846 431.029874 943.908382 445.829951 925.61883 445.829951zM925.61883 346.592786 396.217509 346.592786c-18.289552 0-33.121352-14.8318-33.121352-33.121352 0-18.257829 14.8318-33.057907 33.121352-33.057907l529.401322 0c18.289552 0 33.089629 14.800078 33.089629 33.057907C958.70846 331.760986 943.908382 346.592786 925.61883 346.592786zM925.61883 247.292176 396.217509 247.292176c-18.289552 0-33.121352-14.800078-33.121352-33.091676 0-18.289552 14.8318-33.088606 33.121352-33.088606l529.401322 0c18.289552 0 33.089629 14.800078 33.089629 33.088606C958.70846 232.492098 943.908382 247.292176 925.61883 247.292176zM528.576025 611.278097c0 127.947044-103.69571 231.611032-231.659127 231.611032-127.898949 0-231.627405-103.663988-231.627405-231.611032 0-127.899972 103.727433-231.627405 231.627405-231.627405C424.880315 379.650693 528.576025 483.378126 528.576025 611.278097zM378.929774 636.483152c-3.327792-7.916297-7.656377-14.800078-13.053294-20.682042-5.364171-5.848195-11.504008-10.856255-18.387789-15.089673-6.883781-4.200672-13.926174-7.949043-21.069875-11.246135-7.173376-3.327792-14.184047-6.429433-21.099551-9.402137-6.883781-2.973728-13.05534-6.108115-18.48398-9.501398-5.462408-3.359514-9.790994-7.236821-13.05534-11.568477-3.231601-4.363378-4.846378-9.499351-4.846378-15.381315 0-4.007267 0.741897-7.786337 2.196015-11.374048 1.421372-3.553942 3.619434-6.592139 6.591115-9.146311 2.973728-2.552126 6.65763-4.523013 11.05273-5.944386 4.426823-1.486864 9.56382-2.198062 15.509229-2.198062 7.594979 0 14.542204 0.969071 20.875446 2.780323 6.333242 1.840928 11.923564 3.90903 16.738219 6.137791 4.846378 2.294252 8.918114 4.330632 12.214183 6.302543 3.298116 1.906419 5.688559 2.843768 7.238868 2.843768 1.518586 0 2.713808-0.387833 3.619434-1.260713 0.905626-0.807389 1.583055-2.13257 2.068102-3.941775 0.484024-1.77646 0.839111-4.03899 1.033539-6.817266 0.193405-2.780323 0.289596-6.139837 0.289596-10.147104 0-3.587712-0.064468-6.591115-0.193405-8.983605-0.159636-2.455935-0.387833-4.458545-0.741897-6.0416-0.323365-1.551332-0.743944-2.843768-1.228991-3.845585-0.484024-0.905626-1.421372-2.100848-2.778276-3.489474-1.388627-1.358951-4.200672-3.069919-8.465812-5.13802-4.26514-2.036379-9.178033-3.877307-14.672164-5.494131-5.556553-1.679245-11.470239-2.971681-17.803481-3.90903-1.293459-0.193405-2.585895-0.161682-3.90903-0.291642l0-34.218336-32.508391 0 0 34.218336 0 0c-5.978155 0.775666-11.795651 1.972934-17.417695 3.587712-10.954493 3.134387-20.453844 7.982812-28.532847 14.380522s-14.477736 14.443967-19.2269 24.169469c-4.751211 9.695826-7.141654 20.974707-7.141654 33.80185 0 11.148921 1.679245 20.713764 4.976338 28.728298 3.296069 7.980765 7.624654 14.896268 12.925381 20.74344 5.298679 5.881964 11.310603 10.891048 18.096147 15.09172 6.721075 4.233418 13.701047 7.949043 20.8734 11.276834 7.141654 3.263323 14.090926 6.431479 20.875446 9.403161 6.721075 2.942005 12.730952 6.108115 18.063401 9.501398 5.298679 3.391237 9.597589 7.205099 12.893658 11.568477 3.327792 4.328585 4.976338 9.531074 4.976338 15.591093 0 5.234211-0.969071 10.017144-2.908236 14.282285-1.906419 4.330632-4.718465 7.884574-8.337899 10.79281-3.683902 2.908236-8.110725 5.170766-13.344936 6.721075-5.234211 1.616824-11.148921 2.39249-17.773805 2.39249-10.048867 0-18.903535-1.163499-26.593681-3.426029-7.624654-2.26253-14.21884-4.718465-19.710924-7.496741-5.525853-2.780323-10.017144-5.300726-13.540388-7.561209-3.521197-2.26253-6.236028-3.426029-8.17417-3.426029-1.388627 0-2.585895 0.387833-3.619434 1.163499s-1.874697 2.068102-2.455935 3.877307c-0.645706 1.744737-1.096984 4.13518-1.356904 7.045463-0.257873 2.841721-0.419556 6.461155-0.419556 10.726296 0 6.399757 0.356111 11.246135 1.130753 14.605649 0.775666 3.426029 2.034333 6.009877 3.813862 7.756661 1.809205 1.809205 4.716418 3.811816 8.788154 6.137791 4.072759 2.328022 9.113565 4.588505 15.187911 6.65763 6.076392 2.13257 13.087063 3.943822 21.005406 5.428639 7.916297 1.486864 16.479323 2.26253 25.720801 2.26253 0.419556 0 0.807389-0.064468 1.228991-0.064468l0 31.860638 32.508391 0 0-36.125779c1.551332-0.453325 3.229554-0.581238 4.749164-1.035586 11.990079-3.619434 22.458501-8.918114 31.410384-16.027022 8.949836-7.108908 16.058744-15.963577 21.293979-26.561959s7.852852-22.942525 7.852852-37.017078C383.874389 653.739165 382.226866 644.399449 378.929774 636.483152zM497.878886 776.709871l427.739944 0c18.289552 0 33.089629 14.800078 33.089629 33.153074 0 18.226107-14.800078 33.025161-33.089629 33.025161L419.484422 842.888106C449.764052 826.149886 476.326011 803.595194 497.878886 776.709871z" /></svg>