<?xml version="1.0" standalone="no"?><!DOCTYPE svg PUBLIC "-//W3C//DTD SVG 1.1//EN" "http://www.w3.org/Graphics/SVG/1.1/DTD/svg11.dtd"><svg t="1540871808859" class="icon" style="" viewBox="0 0 1025 1024" version="1.1" xmlns="http://www.w3.org/2000/svg" p-id="4921" xmlns:xlink="http://www.w3.org/1999/xlink" width="64.0625" height="64"><defs><style type="text/css"></style></defs><path d="M700.96 480.064l0-94.624c-1.408-19.456-11.104-30.144-29.12-32l-314.752 0c-17.568 1.376-27.04 12.288-28.448 32.704l0 92.544c0.448 22.72 12.032 34.336 34.656 34.784l306.432 0c20.352-0.928 30.72-12.064 31.2-33.408z" p-id="4922"></path><path d="M1023.52 449.792c-0.832-19.04-1.664-38.112-2.496-57.12-3.84-24.192-2.432-48.864-6.72-72.128-2.016-12.864-4-25.792-5.984-38.656-7.04-32.224-13.856-62.752-24.96-90.528-20.576-51.52-52.32-94.88-96.544-122.752-94.752-59.68-235.68-68.992-390.72-68.576-15.456 0.256-30.944 0.48-46.4 0.736-9.472 0.352-18.944 0.672-28.448 1.024-6.72 0.32-13.472 0.64-20.224 0.992-18.208 1.408-36.448 2.816-54.624 4.256-9.888 1.184-19.808 2.304-29.696 3.488-22.176 4.128-44.128 6.464-64.864 11.712-95.648 24.32-151.648 60.192-195.872 136.16-21.984 37.728-31.232 84.16-41.92 133.472-2.24 16.64-4.48 33.248-6.72 49.888-1.568 19.776-3.168 39.584-4.736 59.36-0.256 6.72-0.48 13.472-0.768 20.224-0.576 18.208-1.152 36.448-1.728 54.624l0 55.616c0.32 17.12 0.672 34.272 1.024 51.36 0.384 11.904 0.832 23.808 1.248 35.68 0.48 8.064 1.024 16.128 1.504 24.192 3.456 21.664 2.624 43.744 6.464 64.64 5.92 31.936 9.824 62.816 18.72 91.296 24.096 77.344 60.384 129.088 124.256 166.624 28.512 16.768 62.624 27.52 98.56 36.672 13.312 2.656 26.592 5.312 39.904 8 16.64 2.24 33.28 4.48 49.888 6.72 21.28 1.664 42.592 3.328 63.872 4.992 7.232 0.256 14.496 0.48 21.696 0.736 15.328 0.416 30.624 0.832 45.92 1.248 7.648 0.096 15.296 0.192 22.944 0.256l31.904 0c20.8-0.32 41.6-0.64 62.4-1.024 5.984-0.256 12-0.48 17.952-0.736 17.792-1.152 35.616-2.336 53.408-3.52 15.232-1.664 30.432-3.328 45.664-4.992 34.208-6.336 66.848-10.912 97.056-20.448 65.536-20.672 114.208-53.728 149.696-104.288 27.328-38.88 41.376-88.288 53.408-142.688 2.592-16.864 5.184-33.76 7.712-50.624 1.856-20.096 3.648-40.256 5.504-60.384 0.32-7.232 0.672-14.464 1.024-21.696 0.64-16.448 1.312-32.928 2.016-49.408l0-13.248c0.096-7.648 0.16-15.296 0.256-22.976l0-54.88c-0.192-7.808-0.352-15.616-0.512-23.424zM818.144 811.232l-178.88 0c-40.192-3.264-61.696-25.504-64.48-66.784l0-178.784-119.232 0c-3.232 99.712-70.016 185.792-200.352 258.112l-47.136-43.84c117.408-67.712 177.472-139.136 180.256-214.304l-61.696 0c-41.152-3.264-63.104-26.432-65.888-69.6l0-125.92c4.16-41.76 25.664-64.704 64.48-68.864l52.704 0c-12.48-30.624-23.328-61.696-32.576-93.216l68.64 0c9.248 29.696 20.352 60.768 33.28 93.216l133.792 0c16.192-38.944 27.488-70.016 33.952-93.216l70.048 0c-10.176 32.928-21.504 64-33.952 93.216l48.544 0c43.424 2.784 66.336 25.984 68.64 69.6l0 131.488c-3.712 37.568-25.664 58.688-65.856 63.328l-60.32 0 0 162.112c-0.48 21.344 11.072 31.744 34.688 31.328l155.328 0-13.856 52.192z" p-id="4923"></path></svg>