<?xml version="1.0" standalone="no"?><!DOCTYPE svg PUBLIC "-//W3C//DTD SVG 1.1//EN" "http://www.w3.org/Graphics/SVG/1.1/DTD/svg11.dtd"><svg t="1537771307226" class="icon" style="" viewBox="0 0 1024 1024" version="1.1" xmlns="http://www.w3.org/2000/svg" p-id="1301" xmlns:xlink="http://www.w3.org/1999/xlink" width="48" height="48"><defs><style type="text/css"></style></defs><path d="M190.26895 694.27437c0 33.608445 27.237341 60.8376 60.839647 60.8376 33.600259 0 60.838623-27.229155 60.838623-60.8376 0-33.602306-27.238364-60.832484-60.838623-60.832484C217.506291 633.441886 190.26895 660.672064 190.26895 694.27437z" p-id="1302"></path><path d="M929.29557 503.264035c-43.325761-43.324738-100.932784-67.184145-162.210405-67.184145-6.334265 0-12.626575 0.270153-18.87079 0.774643 0.143263-2.182712-0.039909-4.422729-0.618077-6.655584-2.472308-9.55461-6.753821-30.997991-10.193153-48.227398-2.231831-11.174504-4.157693-20.825304-5.443989-26.588565-10.19213-45.470611-27.502377-65.076134-68.599378-77.69964l-2.929726-0.900509-299.473629-2.687202c-7.449669-1.001817-27.251667-1.819438-46.24423 13.262048-16.98893 13.517875-19.258623 22.403243-23.181979 42.969651-0.299829 1.570775-0.621147 3.254114-0.979304 5.090948-1.88186 9.736758-3.702322 16.500812-5.462408 23.043832-1.353834 5.030573-2.752694 10.233062-4.015454 16.243963-1.217734 5.791913-2.689249 12.001335-4.552689 19.862373-3.291976 13.886265-7.79964 32.903388-13.81668 62.185294l-0.682545 3.317559 0.39295 3.364631c0.264013 2.26253 3.068895 22.457478 20.020986 34.784224 12.047384 8.78099 24.230867 9.459442 40.126906 9.459442 8.871041 0 13.173021 0.017396 17.992793 0.036839 6.219655 0.024559 13.256932 0.053212 31.720446 0.053212 30.190603 0 90.934059-0.067538 228.568742-0.357134-40.760332 42.819225-63.136969 98.714256-63.136969 158.049642 0 41.030485 10.714016 80.408331 30.792307 114.963335l-249.599731 0.317225-5.260817 13.526061c-6.433526 16.291035-14.038738 23.457248-24.096814 31.81459-13.307074 11.075243-30.496571 14.21577-41.152259 13.551644-18.22099-1.162476-40.908712-11.470239-50.582025-22.988574-10.671037-12.69002-14.418384-26.620287-14.705933-27.735691l-2.060939-9.689686-9.248641-4.498454c-63.004963-30.642904-60.578704-81.151251-51.402717-161.021324 1.303692-11.349489 2.65241-23.085788 3.666506-34.747385 5.968945-68.447928 59.09491-89.788979 62.561871-91.108021l13.108552-4.168949 0.787946-14.123672c0.203638-2.246157 3.369747-33.248242 32.169677-155.072845 11.292184-47.671743 26.594705-73.540923 54.575989-92.264357 1.846044-1.235131 3.530406-2.379187 5.104251-3.448542 13.268188-9.017374 16.645099-11.30958 54.174853-20.865213 14.995529 0.027629 91.127464 0.152473 172.401512-0.005117 13.899568-0.025583 26.52512-0.104377 38.73521-0.181125 80.278371-0.502443 116.928083-0.730641 152.812361 16.310477 22.617114 10.736529 42.792619 30.770817 53.969169 53.586452 11.499915 23.494087 16.863063 52.677756 22.048155 80.899518 1.607614 8.752338 3.270487 17.801435 5.084808 26.446325 2.388397 11.385305 13.546527 18.687618 24.941042 16.292058 11.387351-2.388397 18.681478-13.554714 16.293081-24.942065-1.704828-8.128121-3.246951-16.523325-4.881171-25.411763-5.700839-31.025621-11.596106-63.107293-25.6461-91.814102-15.46011-31.56081-42.338271-58.211796-73.738421-73.117274-44.583404-21.172205-86.875626-20.904099-171.146938-20.38119-12.164041 0.076748-24.742521 0.154519-38.551014 0.180102-90.193185 0.176009-174.050058 0.002047-174.887123 0l-2.64627-0.00614-2.565429 0.648776c-45.138036 11.420097-52.278667 15.415085-70.078055 27.511587-1.49505 1.016143-3.094478 2.103918-4.851495 3.278673-20.125363 13.46671-35.723619 30.179346-47.685046 51.094702-10.149151 17.746176-17.922185 38.869263-24.463158 66.48625-20.916379 88.478124-28.67918 130.512473-31.547507 149.019988-8.023744 4.267187-19.031449 11.186783-30.345122 21.585621-19.340487 17.778922-43.316551 49.54337-47.709605 99.912547-0.964978 11.087523-2.279926 22.530133-3.550873 33.595142-4.28663 37.315884-8.719592 75.902714-1.102101 110.935602 8.523117 39.197744 30.700209 68.236104 67.689658 88.525196 3.26844 8.901741 9.489118 22.384823 20.432355 35.399231 17.146519 20.414959 50.108235 36.011168 80.173994 37.928844 1.933025 0.12075 3.873214 0.181125 5.820566 0.181125 23.194258 0 47.094598-8.563026 64.934918-23.413246 10.403954-8.644891 21.157879-18.539238 30.206976-35.43607l247.354598-0.181125c1.89414-0.001023 3.720741-0.277316 5.466502-0.75213 1.762133 1.882883 3.546779 3.749394 5.378497 5.582135 43.323715 43.325761 100.926644 67.185168 162.198126 67.185168 61.277622 0 118.884644-23.859407 162.210405-67.185168 43.323715-43.323715 67.183122-100.927667 67.183122-162.200172C996.478691 604.189655 972.619284 546.58775 929.29557 503.264035zM340.723613 465.60125c-4.864798-0.020466-9.206686-0.056282-18.161638-0.056282-11.828396 0-14.377452-0.695848-15.329127-1.38965-0.970094-0.705058-1.766226-2.160199-2.305509-3.543709 5.41636-26.070772 9.535167-43.447535 12.588713-56.326866 1.856277-7.830339 3.458775-14.59337 4.78805-20.914332 1.022283-4.864798 2.156106-9.081843 3.470031-13.964036 1.861394-6.921643 3.972475-14.768355 6.137791-25.964348 0.363274-1.866511 0.693802-3.601015 1.00284-5.218862 1.177825-6.17156 2.194992-11.501962 3.042289-13.267165 0.191358-0.399089 1.093914-1.531889 4.972245-4.617158 6.245238-4.958942 12.323677-4.724605 13.960966-4.553713l1.272993 0.401136 297.680796 2.671852c24.175609 7.836479 30.29498 15.812127 36.999682 45.722344 1.178849 5.281283 3.15383 15.170514 5.243421 25.63996 3.728928 18.671245 7.952112 39.833217 10.722202 50.532907 0.272199 1.051959 0.641613 2.049682 1.056052 3.018753-19.385513 5.14416-37.95852 12.81691-55.319933 22.855544-2.346441-0.900509-4.88424-1.414209-7.547907-1.414209-0.016373 0-0.030699 0-0.047072 0C381.865639 466.2357 358.087073 465.670835 340.723613 465.60125zM767.085164 852.713892c-103.248525 0-187.247638-84.002183-187.247638-187.253778 0-103.248525 83.999113-187.248661 187.247638-187.248661 103.256712 0 187.261964 84.000136 187.261964 187.248661C954.347129 768.711709 870.3429 852.713892 767.085164 852.713892z" p-id="1303"></path><path d="M713.487456 688.040389c0.109494-3.854794 0.192382-9.689686 0.192382-9.689686s6.282077-4.26514 9.243525-12.713556c6.226818-2.495844 4.114714-4.101411 4.717442-7.330966 0 0 1.893116-13.091156-2.303462-12.82919 0 0-3.442402-1.13894-2.771113-4.149507 0.220011-5.013177 0.686638-13.571087 0.343831-16.917298-0.343831-3.340071 1.27504-10.649548-5.733585-11.987009-7.008624-1.330298-4.210905-0.664126-6.54302-1.001817-2.330068-0.328481-0.823761-1.665942-5.15644-1.665942l-9.023514-1.446955c-4.333702 0-7.132444 4.348028-9.463536 4.676509-2.332115 0.328481 1.782599-1.01512-3.016707-0.12996-7.008624 1.329275-6.034437 10.889001-6.363941 14.229073-0.343831 3.339048-0.562818 13.049201 0.10847 16.053628 0.659009 3.009544-1.425466 2.673899-1.425466 2.673899-5.007037 0-4.527107 11.259438-4.527107 11.259438 0.768503 3.394307-1.014096 5.375427 3.648087 8.324596 2.962471 8.442276 10.861372 13.619182 10.861372 13.619182s-0.328481 6.452969-0.287549 7.968485c-0.122797 0.603751 1.674129 10.361999-14.659885 13.359262-19.338441 2.844791-22.671349 9.106402-26.305109 12.603039-14.3181 8.05035-13.57825 30.089295-13.57825 30.089295s38.168298 0 63.362096 0c0 0-0.040932-25.137517 5.183046-39.854707C703.777303 697.559183 705.972295 692.449815 713.487456 688.040389z" p-id="1304"></path><path d="M910.308123 712.946638c-3.648087-3.496637-6.979972-9.758248-26.318412-12.603039-19.337417-2.860141-15.525602-12.762675-15.662725-13.359262 0.040932-1.515516 0.713244-7.968485 0.713244-7.968485s7.899924-5.176906 10.861372-13.619182c4.663206-2.955308 1.207501-3.366677 1.988284-6.753821 0 0 1.811252-15.018042-2.071172-12.830213 0 0-3.647063 0.335644-2.990101-2.673899 0.686638-3.01159 1.220804-12.71458 0.877997-16.053628-0.328481-3.341095 0.644683-12.899798-6.363941-14.229073-4.799306-0.88516-0.685615 0.458441-3.016707 0.12996-2.345418-0.328481-5.129834-4.676509-9.462512-4.676509l-9.024537 1.446955c-4.333702 0-3.675716 1.337461-6.007831 1.665942-2.344395 0.336668 0.467651-0.328481-6.5553 1.001817-7.007601 1.337461-5.389754 8.646937-5.719258 11.987009-0.341784 3.347235 0.399089 11.904121 0.630357 16.917298 0.672312 3.009544-1.63115 4.149507-1.63115 4.149507-4.197602-0.26913-2.303462 12.82919-2.303462 12.82919 0.602727 3.229554-0.933255 4.835122 5.293563 7.330966 2.962471 8.448416 7.516184 12.713556 7.516184 12.713556s0.218988 5.828752 0.356111 9.689686c7.488555 4.409426 10.121522 9.518794 13.906731 15.140839 5.514597 6.28924 5.184069 39.70428 5.184069 39.70428 25.194822 0.008186 63.376423 0.008186 63.376423 0.008186S921.568584 719.481472 910.308123 712.946638z" p-id="1305"></path><path d="M814.495964 689.262216c-22.944572-3.010567-18.555611-16.636912-18.733667-17.424858 0.040932-1.982144 0.068562-10.388605 0.068562-10.388605s12.643971-6.760984 16.498766-17.795295c6.101975-3.833305 8.40646-4.374634 9.42158-8.798387 0 0 0.520863-16.745383-6.006807-16.745383 0 0-2.730181 0.440022-1.865487-3.490497 0.877997-3.922333 0.398066-16.587793-0.026606-20.950148-0.438998-4.354168 0.822738-16.813944-8.338922-18.562774-6.240121-1.158383-6.966669 0.603751-10.012028 0.170892-3.056616-0.438998-6.692423-11.382235-12.356422-11.382235l-11.781324 4.930289c-5.649674 0-4.786003 1.740644-7.844665 2.186805-3.044336 0.432859 0.63138-0.446162-8.53028 1.297552-9.147334 1.747807-12.385075 13.514805-12.82305 17.876136-0.425695 4.362354-1.521656 17.027815-1.248434 23.569812 0.877997 3.921309-5.019317 3.921309-5.019317 3.921309-5.485945-0.356111-3.743254 16.739243-3.743254 16.739243 0.794086 4.217045 0.424672 6.315846 8.556886 9.572006 3.868097 11.019984 17.925255 16.581654 17.925255 16.581654s0.493234 7.070023 0.63138 12.109806c-0.823761-0.418532 4.361331 12.856819-20.8734 16.581654-25.234731 3.722788-29.322839 13.892405-30.213116 16.45067-3.758604 9.119705-3.827165 37.536918-3.827165 37.536918l146.131195-0.287549c0 0 0.261966-32.709983-4.511757-37.248346C841.226768 701.152011 839.731718 692.983981 814.495964 689.262216z" p-id="1306"></path></svg>