<?xml version="1.0" standalone="no"?><!DOCTYPE svg PUBLIC "-//W3C//DTD SVG 1.1//EN" "http://www.w3.org/Graphics/SVG/1.1/DTD/svg11.dtd"><svg t="1539766168646" class="icon" style="" viewBox="0 0 1024 1024" version="1.1" xmlns="http://www.w3.org/2000/svg" p-id="2061" xmlns:xlink="http://www.w3.org/1999/xlink" width="64" height="64"><defs><style type="text/css"></style></defs><path d="M957.472 688.768l-42.88 13.408c1.184 9.248 2.624 18.272 2.624 27.808 0 9.472-1.504 18.624-2.944 27.744l43.2 13.472c10.144 2.912 18.688 9.792 23.584 19.104 4.896 9.184 5.92 20.064 2.656 30.08-7.04 20.608-29.888 31.68-51.328 25.056l-43.808-13.536c-9.184 16.448-20.512 31.68-33.632 45.216l26.656 35.264c6.368 8.288 8.992 18.912 7.328 29.216a38.08 38.08 0 0 1-16.384 25.248 41.6 41.6 0 0 1-56.768-8.576l-26.88-35.424a225.12 225.12 0 0 1-55.104 17.856v43.04c0 21.472-18.144 39.008-40.64 39.008-22.56 0-40.768-17.408-40.768-39.008v-43.04a224.64 224.64 0 0 1-55.104-17.856l-26.784 35.424a41.92 41.92 0 0 1-56.864 8.576 37.888 37.888 0 0 1-9.056-54.464l27.008-35.648a206.336 206.336 0 0 1-34.72-44.608l-42.848 13.472c-21.472 6.656-44.352-4.576-51.328-25.152A38.816 38.816 0 0 1 428.8 771.2l42.912-13.28c-1.152-9.248-2.592-18.336-2.592-27.872 0-9.568 1.568-18.624 2.944-27.872l-43.264-13.344c-21.472-6.816-33.056-28.768-26.112-49.312 6.976-20.448 29.824-31.584 51.328-25.056l43.68 13.696c9.408-16.32 20.352-31.808 33.696-45.312l-26.688-35.136a38.08 38.08 0 0 1 8.992-54.624 41.76 41.76 0 0 1 56.864 8.672l26.784 35.392a226.816 226.816 0 0 1 55.2-17.888v-42.944c0-21.568 18.176-39.136 40.64-39.136 22.528 0 40.736 17.44 40.736 39.136v42.912c19.488 3.392 37.76 9.952 55.104 17.92l26.816-35.424a41.92 41.92 0 0 1 56.832-8.64c18.208 12.672 22.24 37.056 9.024 54.56l-27.008 35.584c13.344 13.408 25.504 28.16 34.816 44.48l42.848-13.216c21.44-6.656 44.288 4.608 51.328 25.056 6.976 20.512-4.768 42.464-26.208 49.216z m-264.256-95.36c-78.592 0-142.528 61.216-142.528 136.672 0 75.456 63.936 136.64 142.528 136.64 78.72 0 142.496-61.152 142.496-136.64 0-75.456-63.712-136.672-142.496-136.672z" p-id="2062"></path><path d="M801.376 696.928h-19.232l-0.192 0.128a20.16 20.16 0 0 1 10.432 17.824l0.416 70.88h-198.944V714.88c0-7.52 4.224-14.048 10.4-17.6h-19.232a10.304 10.304 0 0 1-10.432-10.208v-10.176c0-5.664 4.672-10.176 10.432-10.176h10.496v20.384h8.736v-43.648c0-11.296 9.44-20.416 21.024-20.416h136.352c11.488 0 20.896 9.12 20.896 20.416l-0.352 43.328h8.672v-20.416h10.464c5.792 0 10.464 4.576 10.464 10.208v10.176a10.24 10.24 0 0 1-10.4 10.176z m-144.672 79.2h73.472v-10.208h-73.472v10.208z m0-20.416h73.472v-10.208h-73.472v10.208z m0-20.384h73.472v-10.208h-73.472v10.208z m-41.888 30.592c0 5.664 4.704 10.208 10.496 10.208h10.464a10.336 10.336 0 0 0 10.464-10.208 10.304 10.304 0 0 0-10.464-10.176h-10.464a10.304 10.304 0 0 0-10.496 10.176z m146.848-112.32a10.336 10.336 0 0 0-10.528-10.176h-115.328a10.368 10.368 0 0 0-10.464 10.176v51.104h136.352v-51.104h-0.032z m0 102.112h-10.528a10.336 10.336 0 0 0-10.496 10.176c0 5.664 4.672 10.208 10.496 10.208h10.528a10.304 10.304 0 0 0 10.4-10.208 10.336 10.336 0 0 0-10.4-10.176z m31.392 40.224a10.336 10.336 0 0 1-10.496 10.208h-178.272a10.336 10.336 0 0 1-10.4-10.208v-10.176h199.2v10.176h-0.032z m-146.816 30.976a10.304 10.304 0 0 1-10.464 10.176h-10.464a10.368 10.368 0 0 1-10.496-10.176v-20.48h31.424v20.48z m125.824 0a10.304 10.304 0 0 1-10.4 10.176h-10.528a10.336 10.336 0 0 1-10.496-10.176v-20.48h31.424v20.48zM660.416 93.216h72.64c33.088 0 61.184 27.008 61.184 60.096v309.696h40.064V153.312c0-55.264-46.016-100.128-101.248-100.128h-72.64a20 20 0 1 0 0 40.032M633.6 170.304h-76.928V72.832c0-39.552-32-71.584-71.52-71.584h-96.608a71.552 71.552 0 0 0-71.52 71.584v97.44H240.064c-24.864 0-47.072 20.032-47.072 44.896 0 24.832 22.208 47.04 47.072 47.04H633.6c24.64 0 47.008-22.208 47.008-47.04s-22.208-44.864-47.008-44.864zM436.832 136.32a47.488 47.488 0 0 1-47.392-47.392c0-26.112 21.312-47.392 47.392-47.392 26.08 0 47.392 21.28 47.392 47.392 0 26.112-21.312 47.392-47.392 47.392z" p-id="2063"></path><path d="M78.368 825.696V157.664c0-33.28 29.152-64.448 62.272-64.448h73.344a20 20 0 1 0 0-40.032H140.64c-55.296 0-102.368 49.248-102.368 104.512V825.6a100.256 100.256 0 0 0 100.224 100.16h349.472v-39.904H138.496a60.256 60.256 0 0 1-60.128-60.16" p-id="2064"></path><path d="M693.216 393.92c0 23.936-19.424 43.296-43.36 43.296H236.352a43.36 43.36 0 0 1 0-86.656h413.504c23.936 0 43.36 19.424 43.36 43.36z" p-id="2065"></path></svg>