<?xml version="1.0" standalone="no"?><!DOCTYPE svg PUBLIC "-//W3C//DTD SVG 1.1//EN" "http://www.w3.org/Graphics/SVG/1.1/DTD/svg11.dtd"><svg class="icon" width="32px" height="32.00px" viewBox="0 0 1024 1024" version="1.1" xmlns="http://www.w3.org/2000/svg"><path d="M505.33009 948.928211l-105.07308-79.679737L132.320655 869.248474c-30.645974 0-55.163367-24.517393-55.163367-55.163367L77.157287 130.235157c0.87595-29.771047 25.39232-55.163367 56.039317-55.163367L878.338502 75.071789c30.645974 0 55.163367 24.517393 55.163367 55.163367L933.50187 814.084083c0 30.645974-24.517393 55.163367-55.163367 55.163367l-273.188986 4.377704L505.33009 948.928211zM133.196605 122.354676c-4.377704 0-7.880481 3.502777-7.880481 7.880481L125.316124 814.084083c0 4.377704 3.502777 7.880481 7.880481 7.880481l283.696294 0 88.436168 67.421552 83.182514-63.919798 288.949948-4.377704c4.377704 0 7.880481-3.502777 7.880481-7.880481L885.34201 130.235157c0-4.377704-3.502777-7.880481-7.880481-7.880481L133.196605 122.354676z"  /><path d="M669.237553 661.658587l-141.088742 0 0-145.535127 174.094964 0 0 112.528905C702.243775 646.780075 687.365262 661.658587 669.237553 661.658587zM528.319895 345.790946c-5.985542-1.539156-16.075501-4.275501-20.351002-8.208834-0.341968-0.341968-0.513052-0.684136-0.85502-0.85502-0.341968 0.341968-0.513052 0.684136-0.85502 0.85502-4.275501 3.933333-8.03775 6.669678-14.194376 8.208834l0 134.24798-182.987734 0 0-115.607218c0-18.127709 14.878512-33.006222 33.006222-33.006222l76.615455 0c-8.721887-4.788553-16.759637-10.432127-23.429315-16.759637-30.612045-28.559836-36.255419-69.774693-12.313252-92.007019 9.919075-9.234939 23.600399-13.852408 38.136743-13.852408 20.351002 0 42.754213 8.721887 60.539954 25.31044 10.432127 9.747991 19.153814 22.061043 25.481524 35.229514 6.32751-12.997188 15.220481-25.481524 25.481524-35.229514 17.785741-16.588553 40.188952-25.31044 60.539954-25.31044 14.707428 0 28.217668 4.446385 38.136743 13.852408 23.771283 22.232127 18.298793 63.447183-12.313252 92.007019-6.840562 6.32751-14.878512 11.971084-23.429315 16.759637l73.537142 0c18.127709 0 33.006222 14.878512 33.006222 33.006222l0 115.607218-173.752796 0L528.320295 345.790946 528.319895 345.790946zM458.716286 258.743564c-10.944979-10.089959-24.968471-16.246585-37.623691-16.246585-3.762449 0-10.774095 0.684136-15.220481 4.788353-1.026104 0.85502-4.104417 3.762449-4.104417 10.944979 0 8.03775 4.275301 20.522086 16.417669 31.809033 14.878512 13.852408 39.333732 24.284335 56.948589 24.284335 6.156626 0 8.379719-1.368072 8.379719-1.368072C486.420903 306.970266 479.409257 277.897378 458.716286 258.743564zM531.398208 313.126692 531.398208 313.126692c0.513052 0 2.907229 0.85502 8.03775 0.85502 17.614657 0 42.070076-10.432127 56.948589-24.284335 12.142168-11.287147 16.417669-23.771283 16.417669-31.809033 0-7.011646-3.078313-9.919075-4.104417-10.944979-4.446385-4.104417-11.458231-4.788553-15.220481-4.788553-12.65522 0-26.678512 6.156626-37.623691 16.246585C535.160657 277.726294 527.977927 306.628098 531.398208 313.126692zM492.23536 661.658587l-150.152597 0c-18.127709 0-33.006222-14.878512-33.006222-33.006222l0-112.528905 183.158818 0C492.23536 516.12346 492.23536 661.658587 492.23536 661.658587z"  /></svg>