<?xml version="1.0" standalone="no"?><!DOCTYPE svg PUBLIC "-//W3C//DTD SVG 1.1//EN" "http://www.w3.org/Graphics/SVG/1.1/DTD/svg11.dtd"><svg t="1543804613122" class="icon" style="" viewBox="0 0 1024 1024" version="1.1" xmlns="http://www.w3.org/2000/svg" p-id="1370" xmlns:xlink="http://www.w3.org/1999/xlink" width="200" height="200"><defs><style type="text/css"></style></defs><path d="M901.757376 455.340559c31.580253-20.971637 55.380308-65.363683 55.380308-103.253642L957.137685 257.374812c0-43.711548-35.57831-79.289857-79.288834-79.289857L322.029856 178.084954c-1.821485-0.353041-3.508917-1.087774-5.412266-1.087774-1.904373 0-3.590781 0.734734-5.41329 1.087774L146.15115 178.084954c-43.711548 0-79.289857 35.57831-79.289857 79.289857l0 94.956675c0 37.863353 23.719214 82.33624 54.891168 103.226013 1.14201 0.815575 27.961842 20.101827 27.961842 55.680137 0 35.579333-26.819832 54.863539-27.717272 55.489802-31.416524 21.080108-55.135738 65.554018-55.135738 103.416348l0 97.570199c0 43.710524 35.579333 79.287811 79.289857 79.287811l731.696678 0c43.711548 0 79.288834-35.57831 79.288834-79.287811l0-97.323583c0-37.889959-23.800056-82.282005-55.135738-103.089913-1.169639-0.817622-28.532847-20.265556-28.532847-56.060807C873.4691 475.442386 900.832308 455.994452 901.757376 455.340559zM871.184057 409.317363c-2.175549 1.441838-52.986795 35.95898-52.986795 101.921297 0 65.961294 50.811246 100.478436 52.986795 101.920274 16.048511 10.662851 30.68179 37.94624 30.68179 57.231469l0 97.323583c0 13.246699-10.770298 24.01802-24.01802 24.01802L146.15115 791.732006c-13.246699 0-24.019043-10.770298-24.019043-24.01802l0-97.570199c0-19.338441 14.606673-46.756907 30.655184-57.529251 2.149966-1.440815 52.198849-35.795251 52.198849-101.375875 0-65.580624-50.048883-99.93506-52.198849-101.404528-16.048511-10.744715-30.655184-38.162158-30.655184-57.501622L122.132106 257.374812c0-13.246699 10.771321-24.01802 24.019043-24.01802l142.612045 0 0 27.200502c0 15.395642 12.458753 27.853371 27.854395 27.853371s27.853371-12.45773 27.853371-27.853371l0-27.200502 533.376866 0c13.246699 0 24.01802 10.771321 24.01802 24.01802l0 94.712105C901.865847 371.373169 887.231545 398.654512 871.184057 409.317363z" p-id="1371"></path><path d="M316.617589 344.118432c-15.395642 0-27.854395 12.45773-27.854395 27.853371l0 55.706743c0 15.395642 12.458753 27.853371 27.854395 27.853371s27.853371-12.45773 27.853371-27.853371l0-55.706743C344.470961 356.575138 332.013231 344.118432 316.617589 344.118432z" p-id="1372"></path><path d="M316.617589 511.23866c-15.395642 0-27.854395 12.45773-27.854395 27.853371l0 55.706743c0 15.395642 12.458753 27.853371 27.854395 27.853371s27.853371-12.45773 27.853371-27.853371l0-55.706743C344.470961 523.69639 332.013231 511.23866 316.617589 511.23866z" p-id="1373"></path><path d="M316.617589 678.357865c-15.395642 0-27.854395 12.459776-27.854395 27.855418l0 55.706743c0 15.395642 12.458753 27.853371 27.854395 27.853371s27.853371-12.45773 27.853371-27.853371l0-55.706743C344.470961 690.817642 332.013231 678.357865 316.617589 678.357865z" p-id="1374"></path></svg>