<?xml version="1.0" standalone="no"?><!DOCTYPE svg PUBLIC "-//W3C//DTD SVG 1.1//EN" "http://www.w3.org/Graphics/SVG/1.1/DTD/svg11.dtd"><svg t="1533017925362" class="icon" style="" viewBox="0 0 1024 1024" version="1.1" xmlns="http://www.w3.org/2000/svg" p-id="1997" xmlns:xlink="http://www.w3.org/1999/xlink" width="200" height="200"><defs><style type="text/css"></style></defs><path d="M655.587767 367.620705c-26.364461 0-47.749514-21.471011-47.749514-47.952128L607.838254 127.858016 224.202806 127.858016c-26.466792 0-47.937802 21.471011-47.937802 47.952128L176.265004 847.147106c0 26.481118 21.471011 47.951105 47.937802 47.951105l575.446008 0c26.472931 0 47.952128-21.469987 47.952128-47.951105L847.600943 367.620705 655.587767 367.620705zM320.12446 319.668577c0-8.827039 7.157004-15.984043 15.98302-15.984043l111.890346 0c8.818853 0 15.984043 7.157004 15.984043 15.984043l0 15.984043c0 8.827039-7.16519 15.984043-15.984043 15.984043L336.107479 351.636662c-8.826016 0-15.98302-7.157004-15.98302-15.984043L320.12446 319.668577zM320.12446 415.573857c0-8.827039 7.157004-15.984043 15.98302-15.984043l111.890346 0c8.818853 0 15.984043 7.157004 15.984043 15.984043l0 15.984043c0 8.827039-7.16519 15.984043-15.984043 15.984043L336.107479 447.541943c-8.826016 0-15.98302-7.157004-15.98302-15.984043L320.12446 415.573857zM703.744557 719.281927c0 8.818853-7.16519 15.974833-15.985066 15.974833L336.107479 735.25676c-8.826016 0-15.98302-7.15598-15.98302-15.974833l0-15.992229c0-8.828063 7.157004-15.985066 15.98302-15.985066l351.652012 0c8.819876 0 15.985066 7.157004 15.985066 15.985066L703.744557 719.281927zM703.744557 623.366414c0 8.828063-7.16519 15.985066-15.985066 15.985066L336.107479 639.35148c-8.826016 0-15.98302-7.157004-15.98302-15.985066l0-15.974833c0-8.835226 7.157004-15.991206 15.98302-15.991206l351.652012 0c8.819876 0 15.985066 7.15598 15.985066 15.991206L703.744557 623.366414zM703.744557 527.470343c0 8.819876-7.16519 15.97688-15.985066 15.97688L336.107479 543.447223c-8.826016 0-15.98302-7.157004-15.98302-15.97688l0-15.992229c0-8.827039 7.157004-15.984043 15.98302-15.984043l351.652012 0c8.819876 0 15.985066 7.157004 15.985066 15.984043L703.744557 527.470343zM687.416683 319.668577l144.124492 0L655.587767 144.55735l0 143.150304C655.587767 305.362756 669.840376 319.668577 687.416683 319.668577z" p-id="1998"></path></svg>