<?xml version="1.0" standalone="no"?><!DOCTYPE svg PUBLIC "-//W3C//DTD SVG 1.1//EN" "http://www.w3.org/Graphics/SVG/1.1/DTD/svg11.dtd"><svg t="1539254927241" class="icon" style="" viewBox="0 0 1024 1024" version="1.1" xmlns="http://www.w3.org/2000/svg" p-id="6681" xmlns:xlink="http://www.w3.org/1999/xlink" width="64" height="64"><defs><style type="text/css"></style></defs><path d="M458.559369 520.743128c0 109.856014-89.068572 198.922539-198.922539 198.922539-109.85499 0-198.923562-89.066525-198.923562-198.922539 0-109.853967 89.068572-198.925608 198.923562-198.925608C369.490797 321.818543 458.559369 410.890184 458.559369 520.743128z" p-id="6682"></path><path d="M259.638877 520.743128 803.275411 231.68164 259.638877 520.743128Z" p-id="6683"></path><path d="M259.638877 520.743128 806.480406 792.317337 259.638877 520.743128Z" p-id="6684"></path><path d="M955.67231 792.224216c0 82.46313-66.825988 149.286048-149.191904 149.286048-82.465177 0-149.192927-66.822918-149.192927-149.286048 0-82.371032 66.727751-149.192927 149.192927-149.192927C888.847345 643.031289 955.67231 709.853184 955.67231 792.224216z" p-id="6685"></path><path d="M952.466292 231.68164c0 82.370009-66.825988 149.191904-149.190881 149.191904-82.367963 0-149.192927-66.821895-149.192927-149.191904 0-82.364893 66.824965-149.191904 149.192927-149.191904C885.64235 82.488713 952.466292 149.316747 952.466292 231.68164z" p-id="6686"></path><path d="M685.626373 252.525408l33.245197 61.19094-284.104646 154.354795-33.245197-61.19094 284.104646-154.354795Z" p-id="6687"></path><path d="M710.456815 700.037472l-30.487979 62.612476-273.31234-133.084354 30.487979-62.612476 273.31234 133.084354Z" p-id="6688"></path></svg>