<?xml version="1.0" standalone="no"?><!DOCTYPE svg PUBLIC "-//W3C//DTD SVG 1.1//EN" "http://www.w3.org/Graphics/SVG/1.1/DTD/svg11.dtd"><svg t="1539253808662" class="icon" style="" viewBox="0 0 1024 1024" version="1.1" xmlns="http://www.w3.org/2000/svg" p-id="6500" xmlns:xlink="http://www.w3.org/1999/xlink" width="64" height="64"><defs><style type="text/css"></style></defs><path d="M873.739 1036.421h-727.402c-80.247 0-145.687-65.094-145.687-145.687v-727.402c0-89.205 73.015-162.564 162.564-162.564h355.435c20.319 0 36.852 16.532 36.852 36.852v0c0 20.319-16.532 36.852-36.852 36.852h-369.899c-40.298 0-74.050 33.754-74.050 74.050l-1.377 742.213c0 40.298 32.719 72.671 72.671 72.671l742.213-1.377c40.298 0 74.050-33.754 74.050-74.050v-369.211c0-20.319 16.532-36.852 36.852-36.852v0c20.319 0 36.852 16.532 36.852 36.852v369.899c0.347 80.247-81.628 147.754-162.218 147.754v0z" p-id="6501"></path><path d="M999.447 333.814c-21.011 0-36.852-16.876-36.852-36.852l-1.035-176.685-563.118 536.598c-14.809 14.122-38.576 14.122-53.383 0s-14.809-36.852 0-50.973l557.951-532.119-162.564 1.035c-21.011 0-36.852-16.876-36.852-36.852s15.842-36.852 36.852-36.852h257.967c21.011 0 37.886 16.19 37.886 36.164v259.345c0 19.975-15.842 37.198-36.852 37.198v0z" p-id="6502"></path></svg>