<?xml version="1.0" standalone="no"?><!DOCTYPE svg PUBLIC "-//W3C//DTD SVG 1.1//EN" "http://www.w3.org/Graphics/SVG/1.1/DTD/svg11.dtd"><svg class="icon" width="64px" height="64.00px" viewBox="0 0 1024 1024" version="1.1" xmlns="http://www.w3.org/2000/svg"><path d="M511.996125 442.810811C318.930612 442.810811 151.880234 393.907892 69.185315 322.532324L69.185315 434.729514C93.872017 519.168 282.620125 584.842378 511.996125 584.842378 758.171261 584.842378 957.712882 509.232432 957.712882 415.93773 957.712882 416.020757 1010.905531 416.131459 1010.158288 415.93773 1010.158288 537.932108 787.120017 636.789622 511.996125 636.789622 318.930612 636.789622 151.880234 588.025081 69.185315 516.815568L69.185315 628.127135C93.872017 712.537946 282.620125 778.212324 511.996125 778.212324 758.171261 778.212324 957.712882 702.602378 957.712882 609.335351 957.712882 609.418378 1010.905531 609.529081 1010.158288 609.335351 1010.158288 731.302054 787.120017 830.187243 511.996125 830.187243 318.930612 830.187243 151.880234 781.422703 69.185315 710.213189L69.185315 821.939892C93.872017 906.350703 282.620125 972.025081 511.996125 972.025081 758.171261 972.025081 957.712882 896.415135 957.712882 803.148108 957.712882 803.203459 1010.905531 803.314162 1010.158288 803.148108 1010.158288 925.114811 787.120017 1024 511.996125 1024 279.631152 1024 84.988125 953.371676 29.913531 857.945946L13.833963 857.945946 13.833963 249.081081 18.123693 249.081081C15.577531 240.003459 13.833963 230.787459 13.833963 221.405405 13.833963 99.13427 236.872234 0 511.996125 0 787.120017 0 1010.158288 99.13427 1010.158288 221.405405 1010.158288 343.676541 787.120017 442.810811 511.996125 442.810811ZM511.996125 51.891892C266.01472 51.891892 66.583801 127.778595 66.583801 221.405405 66.583801 315.032216 266.01472 390.918919 511.996125 390.918919 757.977531 390.918919 957.40845 315.032216 957.40845 221.405405 957.40845 127.778595 757.977531 51.891892 511.996125 51.891892Z" /></svg>